ply
format ascii 1.0
comment Created by Blender 3.1.0 - www.blender.org
comment To understand - https://www.youtube.com/watch?v=kAqj5onPdFM
element vertex 174
property float x
property float y
property float z
property float nx
property float ny
property float nz
property float s
property float t
element face 67
property list uchar uint vertex_indices
end_header
6.460000 0.000000 -0.000000 1.000000 0.000000 0.000001 0.250000 0.250000
4.460000 0.980785 -0.195090 -0.503290 0.847514 -0.168581 0.296822 0.485388
4.460000 1.000000 0.000000 -0.503290 0.864118 -0.000000 0.250000 0.490000
4.460000 0.923880 -0.382683 -0.503290 0.798341 -0.330683 0.341844 0.471731
4.460000 0.831470 -0.555570 -0.503290 0.718488 -0.480078 0.383337 0.449553
4.460000 0.707107 -0.707107 -0.503290 0.611023 -0.611023 0.419706 0.419706
4.460000 0.555570 -0.831470 -0.503290 0.480078 -0.718488 0.449553 0.383337
4.460000 0.382683 -0.923879 -0.503290 0.330683 -0.798341 0.471731 0.341844
4.460000 0.195090 -0.980785 -0.503290 0.168581 -0.847514 0.485388 0.296822
4.460000 -0.000000 -1.000000 -0.503290 -0.000001 -0.864118 0.490000 0.250000
4.460000 -0.195090 -0.980785 -0.503290 -0.168581 -0.847514 0.485388 0.203178
4.460000 -0.382683 -0.923880 -0.503290 -0.330684 -0.798341 0.471731 0.158156
4.460000 -0.555570 -0.831470 -0.503290 -0.480078 -0.718487 0.449553 0.116663
4.460000 -0.707107 -0.707107 -0.503290 -0.611024 -0.611023 0.419706 0.080294
4.460000 -0.831470 -0.555570 -0.503290 -0.718488 -0.480078 0.383337 0.050447
4.460000 -0.923880 -0.382683 -0.503290 -0.798341 -0.330683 0.341844 0.028269
4.460000 -0.980785 -0.195090 -0.503290 -0.847514 -0.168581 0.296822 0.014612
4.460000 -1.000000 0.000000 -0.503290 -0.864118 0.000000 0.250000 0.010000
4.460000 -0.980785 0.195090 -0.503290 -0.847514 0.168581 0.203178 0.014612
4.460000 -0.923880 0.382683 -0.503290 -0.798341 0.330683 0.158156 0.028269
4.460000 -0.831470 0.555570 -0.503290 -0.718488 0.480078 0.116663 0.050447
4.460000 -0.707107 0.707107 -0.503290 -0.611024 0.611023 0.080294 0.080294
4.460000 -0.555570 0.831470 -0.503290 -0.480079 0.718487 0.050447 0.116663
4.460000 -0.382684 0.923880 -0.503290 -0.330684 0.798340 0.028269 0.158156
4.460000 -0.195090 0.980785 -0.503290 -0.168581 0.847514 0.014612 0.203178
4.460000 0.000000 1.000000 -0.503290 0.000000 0.864118 0.010000 0.250000
4.460000 0.195090 0.980785 -0.503290 0.168581 0.847514 0.014612 0.296822
4.460000 0.382684 0.923880 -0.503290 0.330684 0.798341 0.028269 0.341844
4.460000 0.555570 0.831470 -0.503290 0.480078 0.718488 0.050447 0.383337
4.460000 0.707107 0.707107 -0.503290 0.611023 0.611024 0.080294 0.419706
4.460000 0.831470 0.555570 -0.503290 0.718488 0.480078 0.116663 0.449553
4.460000 0.923880 0.382683 -0.503290 0.798341 0.330683 0.158156 0.471731
4.460000 0.980785 0.195090 -0.503290 0.847514 0.168581 0.703178 0.485388
4.460000 1.000000 0.000000 -0.503290 0.864118 -0.000000 0.750000 0.490000
4.460000 0.980785 -0.195090 -0.503290 0.847514 -0.168581 0.796822 0.485388
4.460000 0.923880 -0.382683 -0.503290 0.798341 -0.330683 0.841844 0.471731
4.460000 0.831470 -0.555570 -0.503290 0.718488 -0.480078 0.883337 0.449553
4.460000 0.707107 -0.707107 -0.503290 0.611023 -0.611023 0.919706 0.419706
4.460000 0.555570 -0.831470 -0.503290 0.480078 -0.718488 0.949553 0.383337
4.460000 0.382683 -0.923879 -0.503290 0.330683 -0.798341 0.971731 0.341844
4.460000 0.195090 -0.980785 -0.503290 0.168581 -0.847514 0.985388 0.296822
4.460000 0.097545 -0.490393 -0.729849 0.133365 -0.670473 0.867694 0.273411
4.460000 0.191342 -0.461940 -0.685697 0.278551 -0.672480 0.860865 0.295922
4.460000 0.277785 -0.415735 -0.685696 0.404393 -0.605216 0.849777 0.316668
4.460000 0.353553 -0.353553 -0.685696 0.514694 -0.514694 0.834853 0.334853
4.460000 0.415735 -0.277785 -0.685696 0.605216 -0.404393 0.816668 0.349776
4.460000 0.461940 -0.191342 -0.685696 0.672481 -0.278550 0.795922 0.360866
4.460000 0.490393 -0.097545 -0.685697 0.713901 -0.142004 0.773411 0.367694
4.460000 0.500000 0.000000 -0.685696 0.727888 -0.000000 0.750000 0.370000
4.460000 0.490393 0.097545 -0.685696 0.713901 0.142004 0.726589 0.367694
4.460000 0.461940 0.191342 -0.685696 0.672480 0.278550 0.704078 0.360866
4.460000 0.415735 0.277785 -0.685696 0.605216 0.404393 0.683332 0.349776
4.460000 0.353553 0.353553 -0.685697 0.514694 0.514694 0.665147 0.334853
4.460000 0.277785 0.415735 -0.685696 0.404393 0.605216 0.650224 0.316668
4.460000 0.191342 0.461940 -0.685696 0.278551 0.672480 0.639134 0.295922
4.460000 0.097545 0.490393 -0.685696 0.142004 0.713901 0.632306 0.273411
4.460000 0.000000 0.500000 -0.685696 0.000000 0.727888 0.630000 0.250000
4.460000 -0.097545 0.490393 -0.729849 -0.133366 0.670473 0.632306 0.226589
4.460000 -0.195090 0.980785 -0.503290 -0.168581 0.847514 0.514612 0.203178
4.460000 0.000000 1.000000 -0.503290 0.000000 0.864118 0.510000 0.250000
4.460000 0.195090 0.980785 -0.503290 0.168581 0.847514 0.514612 0.296822
4.460000 0.382684 0.923880 -0.503290 0.330684 0.798341 0.528269 0.341844
4.460000 0.555570 0.831470 -0.503290 0.480078 0.718488 0.550447 0.383337
4.460000 0.707107 0.707107 -0.503290 0.611023 0.611024 0.580294 0.419706
4.460000 0.831470 0.555570 -0.503290 0.718488 0.480078 0.616663 0.449553
4.460000 0.923880 0.382683 -0.503290 0.798341 0.330683 0.658156 0.471731
4.460000 -0.000000 -1.000000 -0.503290 -0.000001 -0.864118 0.990000 0.250000
4.460000 -0.195090 -0.980785 -0.503290 -0.168581 -0.847514 0.985388 0.203178
4.460000 -0.382683 -0.923880 -0.503290 -0.330684 -0.798341 0.971731 0.158156
4.460000 -0.555570 -0.831470 -0.503290 -0.480078 -0.718487 0.949553 0.116663
4.460000 -0.707107 -0.707107 -0.503290 -0.611024 -0.611023 0.919706 0.080294
4.460000 -0.831470 -0.555570 -0.503290 -0.718488 -0.480078 0.883337 0.050447
4.460000 -0.923880 -0.382683 -0.503290 -0.798341 -0.330683 0.841844 0.028269
4.460000 -0.980785 -0.195090 -0.503290 -0.847514 -0.168581 0.796822 0.014612
4.460000 -1.000000 0.000000 -0.503290 -0.864118 0.000000 0.750000 0.010000
4.460000 -0.980785 0.195090 -0.503290 -0.847514 0.168581 0.703178 0.014612
4.460000 -0.923880 0.382683 -0.503290 -0.798341 0.330683 0.658156 0.028269
4.460000 -0.831470 0.555570 -0.503290 -0.718488 0.480078 0.616663 0.050447
4.460000 -0.707107 0.707107 -0.503290 -0.611024 0.611023 0.580294 0.080294
4.460000 -0.555570 0.831470 -0.503290 -0.480079 0.718487 0.550447 0.116663
4.460000 -0.382684 0.923880 -0.503290 -0.330684 0.798340 0.528269 0.158156
4.460000 -0.191342 0.461940 -0.685696 -0.278551 0.672480 0.639134 0.204078
4.460000 -0.277785 0.415735 -0.685696 -0.404393 0.605216 0.650224 0.183332
4.460000 -0.353553 0.353553 -0.685696 -0.514695 0.514694 0.665147 0.165147
4.460000 -0.415735 0.277785 -0.685696 -0.605217 0.404393 0.683332 0.150224
4.460000 -0.461940 0.191342 -0.685696 -0.672481 0.278551 0.704078 0.139134
4.460000 -0.490393 0.097545 -0.685696 -0.713902 0.142004 0.726589 0.132306
4.460000 -0.500000 0.000000 -0.685696 -0.727888 0.000000 0.750000 0.130000
4.460000 -0.490393 -0.097545 -0.685696 -0.713902 -0.142004 0.773411 0.132306
4.460000 -0.461940 -0.191342 -0.685696 -0.672481 -0.278550 0.795922 0.139134
4.460000 -0.415735 -0.277785 -0.685696 -0.605217 -0.404393 0.816668 0.150224
4.460000 -0.353553 -0.353553 -0.685696 -0.514695 -0.514694 0.834853 0.165147
4.460000 -0.277785 -0.415735 -0.685696 -0.404393 -0.605216 0.849776 0.183332
4.460000 -0.191342 -0.461940 -0.685696 -0.278551 -0.672480 0.860865 0.204078
4.460000 -0.097545 -0.490393 -0.685696 -0.142004 -0.713901 0.867694 0.226589
4.460000 -0.000000 -0.500000 -0.685696 -0.000000 -0.727888 0.870000 0.250000
4.460000 0.980785 0.195090 -0.503290 0.847514 0.168581 0.203178 0.485388
-5.000000 0.490393 -0.097545 -0.685697 0.713901 -0.142004 0.968750 0.500000
-5.000000 0.500000 0.000000 -0.685697 0.727888 -0.000000 1.000000 0.500000
4.460000 0.500000 0.000000 -0.685696 0.727888 -0.000000 1.000000 0.973000
4.460000 0.490393 -0.097545 -0.685697 0.713901 -0.142004 0.968750 0.973000
-5.000000 0.461940 -0.191341 -0.685697 0.672480 -0.278551 0.937500 0.500000
4.460000 0.461940 -0.191342 -0.685696 0.672481 -0.278550 0.937500 0.973000
-5.000000 0.415735 -0.277785 -0.685697 0.605216 -0.404393 0.906250 0.500000
4.460000 0.415735 -0.277785 -0.685696 0.605216 -0.404393 0.906250 0.973000
-5.000000 0.353553 -0.353553 -0.685697 0.514694 -0.514694 0.875000 0.500000
4.460000 0.353553 -0.353553 -0.685696 0.514694 -0.514694 0.875000 0.973000
4.460000 0.277785 -0.415735 -0.685696 0.404393 -0.605216 0.843750 0.973000
-5.000000 0.277785 -0.415734 -0.685696 0.404393 -0.605217 0.843750 0.500000
4.460000 0.353553 -0.353553 -0.685696 0.514694 -0.514694 0.875000 0.973000
4.460000 0.191342 -0.461940 -0.685697 0.278551 -0.672480 0.812500 0.973000
-5.000000 0.191342 -0.461939 -0.685697 0.278550 -0.672480 0.812500 0.500000
4.460000 0.097545 -0.490393 -0.729849 0.133365 -0.670473 0.781250 0.973000
-5.000000 0.097545 -0.490392 -0.685696 0.142004 -0.713901 0.781250 0.500000
4.460000 0.191342 -0.461940 -0.685697 0.278551 -0.672480 0.812500 0.973000
4.460000 -0.000000 -0.500000 -0.685696 -0.000000 -0.727888 0.750000 0.973000
-5.000000 -0.000000 -0.500000 -0.685696 -0.000000 -0.727888 0.750000 0.500000
4.460000 -0.097545 -0.490393 -0.685696 -0.142004 -0.713901 0.718750 0.973000
-5.000000 -0.097545 -0.490392 -0.685696 -0.142004 -0.713901 0.718750 0.500000
4.460000 -0.000000 -0.500000 -0.685696 -0.000000 -0.727888 0.750000 0.973000
4.460000 -0.191342 -0.461940 -0.685696 -0.278551 -0.672480 0.687500 0.973000
-5.000000 -0.191342 -0.461939 -0.685696 -0.278551 -0.672481 0.687500 0.500000
4.460000 -0.277785 -0.415735 -0.685696 -0.404393 -0.605216 0.656250 0.973000
-5.000000 -0.277785 -0.415734 -0.685697 -0.404393 -0.605216 0.656250 0.500000
4.460000 -0.353553 -0.353553 -0.685696 -0.514695 -0.514694 0.625000 0.973000
-5.000000 -0.353553 -0.353553 -0.685697 -0.514694 -0.514694 0.625000 0.500000
4.460000 -0.415735 -0.277785 -0.685696 -0.605217 -0.404393 0.593750 0.973000
-5.000000 -0.415735 -0.277785 -0.685696 -0.605217 -0.404393 0.593750 0.500000
4.460000 -0.461940 -0.191342 -0.685696 -0.672481 -0.278550 0.562500 0.973000
-5.000000 -0.461940 -0.191341 -0.685696 -0.672480 -0.278550 0.562500 0.500000
4.460000 -0.415735 -0.277785 -0.685696 -0.605217 -0.404393 0.593750 0.973000
4.460000 -0.490393 -0.097545 -0.685696 -0.713902 -0.142004 0.531250 0.973000
-5.000000 -0.490393 -0.097545 -0.685696 -0.713902 -0.142004 0.531250 0.500000
4.460000 -0.500000 0.000000 -0.685696 -0.727888 0.000000 0.500000 0.973000
-5.000000 -0.500000 0.000001 -0.685696 -0.727888 0.000000 0.500000 0.500000
4.460000 -0.490393 -0.097545 -0.685696 -0.713902 -0.142004 0.531250 0.973000
4.460000 -0.490393 0.097545 -0.685696 -0.713902 0.142004 0.468750 0.973000
-5.000000 -0.490393 0.097546 -0.685696 -0.713902 0.142004 0.468750 0.500000
4.460000 -0.461940 0.191342 -0.685696 -0.672481 0.278551 0.437500 0.973000
-5.000000 -0.461940 0.191342 -0.685696 -0.672481 0.278551 0.437500 0.500000
4.460000 -0.415735 0.277785 -0.685696 -0.605217 0.404393 0.406250 0.973000
-5.000000 -0.415735 0.277786 -0.685696 -0.605217 0.404393 0.406250 0.500000
4.460000 -0.461940 0.191342 -0.685696 -0.672481 0.278551 0.437500 0.973000
4.460000 -0.353553 0.353553 -0.685696 -0.514695 0.514694 0.375000 0.973000
-5.000000 -0.353553 0.353554 -0.685696 -0.514695 0.514694 0.375000 0.500000
4.460000 -0.415735 0.277785 -0.685696 -0.605217 0.404393 0.406250 0.973000
-5.000000 -0.277785 0.415735 -0.685696 -0.404393 0.605216 0.343750 0.500000
4.460000 -0.353553 0.353553 -0.685696 -0.514695 0.514694 0.375000 0.973000
4.460000 -0.277785 0.415735 -0.685696 -0.404393 0.605216 0.343750 0.973000
-5.000000 -0.191342 0.461940 -0.685696 -0.278551 0.672480 0.312500 0.500000
4.460000 -0.191342 0.461940 -0.685696 -0.278551 0.672480 0.312500 0.973000
-5.000000 -0.097545 0.490393 -0.685697 -0.142004 0.713901 0.281250 0.500000
4.460000 -0.097545 0.490393 -0.729849 -0.133366 0.670473 0.281250 0.973000
-5.000000 0.000000 0.500000 -0.685696 -0.000000 0.727888 0.250000 0.500000
4.460000 0.000000 0.500000 -0.685696 0.000000 0.727888 0.250000 0.973000
-5.000000 0.097545 0.490393 -0.685696 0.142004 0.713901 0.218750 0.500000
4.460000 0.097545 0.490393 -0.685696 0.142004 0.713901 0.218750 0.973000
-5.000000 0.191342 0.461940 -0.685696 0.278550 0.672480 0.187500 0.500000
4.460000 0.097545 0.490393 -0.685696 0.142004 0.713901 0.218750 0.973000
4.460000 0.191342 0.461940 -0.685696 0.278551 0.672480 0.187500 0.973000
-5.000000 0.277785 0.415735 -0.685697 0.404392 0.605217 0.156250 0.500000
4.460000 0.191342 0.461940 -0.685696 0.278551 0.672480 0.187500 0.973000
4.460000 0.277785 0.415735 -0.685696 0.404393 0.605216 0.156250 0.973000
-5.000000 0.353553 0.353554 -0.685697 0.514694 0.514694 0.125000 0.500000
4.460000 0.353553 0.353553 -0.685697 0.514694 0.514694 0.125000 0.973000
-5.000000 0.415735 0.277786 -0.685697 0.605216 0.404393 0.093750 0.500000
4.460000 0.415735 0.277785 -0.685696 0.605216 0.404393 0.093750 0.973000
-5.000000 0.461940 0.191342 -0.685697 0.672480 0.278551 0.062500 0.500000
4.460000 0.415735 0.277785 -0.685696 0.605216 0.404393 0.093750 0.973000
4.460000 0.461940 0.191342 -0.685696 0.672480 0.278550 0.062500 0.973000
-5.000000 0.490393 0.097546 -0.685697 0.713901 0.142004 0.031250 0.500000
4.460000 0.490393 0.097545 -0.685696 0.713901 0.142004 0.031250 0.973000
-5.000000 0.500000 0.000000 -0.685697 0.727888 -0.000000 0.000000 0.500000
4.460000 0.500000 0.000000 -0.685696 0.727888 -0.000000 0.000000 0.973000
3 0 1 2
3 0 3 1
3 0 4 3
3 0 5 4
3 0 6 5
3 0 7 6
3 0 8 7
3 0 9 8
3 10 9 0
3 11 10 0
3 12 11 0
3 13 12 0
3 0 14 13
3 0 15 14
3 0 16 15
3 0 17 16
3 18 17 0
3 19 18 0
3 20 19 0
3 21 20 0
3 21 0 22
3 22 0 23
3 23 0 24
3 0 25 24
3 0 26 25
3 0 27 26
3 0 28 27
3 0 29 28
3 29 0 30
3 30 0 31
34 32 33 34 35 36 37 38 39 40 41 42 43 44 45 46 47 48 49 50 51 52 53 54 55 56 57 58 59 60 61 62 63 64 65
34 41 40 66 67 68 69 70 71 72 73 74 75 76 77 78 79 80 58 57 81 82 83 84 85 86 87 88 89 90 91 92 93 94 95
3 31 0 96
3 96 0 2
4 97 98 99 100
4 101 97 100 102
4 103 101 102 104
4 105 103 104 106
4 107 108 105 109
4 110 111 108 107
4 112 113 111 114
4 115 116 113 112
4 117 118 116 119
4 120 121 118 117
4 122 123 121 120
4 124 125 123 122
4 126 127 125 124
4 128 129 127 130
4 131 132 129 128
4 133 134 132 135
4 136 137 134 133
4 138 139 137 136
4 140 141 139 142
4 143 144 141 145
4 146 144 147 148
4 149 146 148 150
4 151 149 150 152
4 153 151 152 154
4 155 153 154 156
4 157 155 158 159
4 160 157 161 162
4 163 160 162 164
4 165 163 164 166
4 167 165 168 169
4 170 167 169 171
4 172 170 171 173
32 32 33 34 35 36 37 38 39 40 66 67 68 69 70 71 72 73 74 75 76 77 78 79 80 58 59 60 61 62 63 64 65
