# Blender 3.1.0
# www.blender.org
mtllib arrow_tri.mtl
o Cone
v 4.460000 0.000000 -1.000000
v -5.000000 0.000000 -0.500000
v 4.460000 -0.195090 -0.980785
v -5.000000 -0.097545 -0.490393
v 4.460000 -0.382683 -0.923880
v 4.460000 -0.555570 -0.831470
v 4.460000 -0.707107 -0.707107
v -5.000000 -0.191341 -0.461940
v 4.460000 -0.831470 -0.555570
v 4.460000 -0.923879 -0.382683
v -5.000000 -0.277785 -0.415735
v 4.460000 -0.980785 -0.195090
v 4.460000 -1.000000 0.000000
v -5.000000 -0.353553 -0.353553
v 4.460000 -0.980785 0.195090
v 4.460000 -0.923880 0.382683
v -5.000000 -0.415734 -0.277785
v 4.460000 -0.831470 0.555570
v 4.460000 -0.707107 0.707107
v -5.000000 -0.461939 -0.191342
v 4.460000 -0.555570 0.831470
v 4.460000 -0.382683 0.923880
v -5.000000 -0.490392 -0.097545
v 4.460000 -0.195090 0.980785
v 4.460000 0.000000 1.000000
v -5.000000 -0.500000 0.000000
v 4.460000 0.195090 0.980785
v 4.460000 0.382683 0.923880
v -5.000000 -0.490392 0.097545
v 4.460000 0.555570 0.831470
v 4.460000 0.707107 0.707107
v -5.000000 -0.461939 0.191342
v 4.460000 0.831470 0.555570
v 4.460000 0.923880 0.382684
v -5.000000 -0.415734 0.277785
v 4.460000 0.980785 0.195090
v 4.460000 1.000000 -0.000000
v -5.000000 -0.353553 0.353553
v 4.460000 0.980785 -0.195090
v 4.460000 0.923880 -0.382684
v -5.000000 -0.277785 0.415735
v 4.460000 0.831470 -0.555570
v 4.460000 0.707107 -0.707107
v -5.000000 -0.191341 0.461940
v 4.460000 0.555570 -0.831470
v 4.460000 0.382683 -0.923880
v -5.000000 -0.097545 0.490393
v 4.460000 0.195090 -0.980785
v -5.000000 0.000001 0.500000
v 6.460000 -0.000000 0.000000
v -5.000000 0.097546 0.490393
v -5.000000 0.191342 0.461940
v -5.000000 0.277786 0.415735
v -5.000000 0.353554 0.353553
v -5.000000 0.415735 0.277785
v -5.000000 0.461940 0.191342
v -5.000000 0.490393 0.097545
v -5.000000 0.500000 -0.000000
v -5.000000 0.490393 -0.097545
v -5.000000 0.461940 -0.191342
v -5.000000 0.415735 -0.277785
v -5.000000 0.353554 -0.353553
v -5.000000 0.277786 -0.415735
v -5.000000 0.191342 -0.461940
v -5.000000 0.097546 -0.490393
v 4.460000 0.000000 -0.500000
v 4.460000 -0.097545 -0.490393
v 4.460000 -0.191342 0.461940
v 4.460000 -0.277785 -0.415735
v 4.460000 -0.277785 0.415735
v 4.460000 -0.191342 -0.461940
v 4.460000 -0.415735 0.277785
v 4.460000 -0.415735 -0.277785
v 4.460000 -0.500000 0.000000
v 4.460000 -0.490393 -0.097545
v 4.460000 -0.461940 0.191342
v 4.460000 -0.490393 0.097545
v 4.460000 -0.461940 -0.191342
v 4.460000 -0.353553 -0.353553
v 4.460000 -0.353553 0.353553
v 4.460000 0.500000 -0.000000
v 4.460000 0.461940 0.191342
v 4.460000 0.490393 0.097545
v 4.460000 0.490393 -0.097545
v 4.460000 0.353553 0.353553
v 4.460000 0.415735 0.277785
v 4.460000 0.415735 -0.277785
v 4.460000 0.461940 -0.191342
v 4.460000 0.191342 -0.461940
v 4.460000 0.191342 0.461940
v 4.460000 0.277785 -0.415735
v 4.460000 0.097545 -0.490393
v 4.460000 -0.097545 0.490393
v 4.460000 0.000000 0.500000
v 4.460000 0.097545 0.490393
v 4.460000 0.277785 0.415735
v 4.460000 0.353553 -0.353553
vn 0.4455 -0.0878 -0.8910
vn 0.4455 -0.2599 -0.8567
vn 0.4455 -0.4220 -0.7896
vn 0.4455 -0.5680 -0.6921
vn 0.4455 -0.6921 -0.5680
vn 0.4455 -0.7896 -0.4220
vn 0.4455 -0.8567 -0.2599
vn 0.4455 -0.8910 -0.0878
vn 0.4455 -0.8910 0.0878
vn 0.4455 -0.8567 0.2599
vn 0.4455 -0.7896 0.4220
vn 0.4455 -0.6921 0.5680
vn 0.4455 -0.5680 0.6921
vn 0.4455 -0.4220 0.7896
vn 0.4455 -0.2599 0.8567
vn 0.4455 -0.0878 0.8910
vn 0.4455 0.0878 0.8910
vn 0.4455 0.2599 0.8567
vn 0.4455 0.4220 0.7896
vn 0.4455 0.5680 0.6921
vn 0.4455 0.6921 0.5680
vn 0.4455 0.7896 0.4220
vn 0.4455 0.8567 0.2599
vn 0.4455 0.8910 0.0878
vn 0.4455 0.8910 -0.0878
vn 0.4455 0.8567 -0.2599
vn 0.4455 0.7896 -0.4220
vn 0.4455 0.6921 -0.5680
vn 0.4455 0.5680 -0.6921
vn 0.4455 0.4220 -0.7896
vn -1.0000 -0.0000 -0.0000
vn 0.4455 0.2599 -0.8567
vn 0.4455 0.0878 -0.8910
vn -0.0000 -0.0980 -0.9952
vn -0.0000 -0.2903 -0.9569
vn -0.0000 -0.4714 -0.8819
vn -0.0000 -0.6344 -0.7730
vn -0.0000 -0.7730 -0.6344
vn -0.0000 -0.8819 -0.4714
vn -0.0000 -0.9569 -0.2903
vn -0.0000 -0.9952 -0.0980
vn -0.0000 -0.9952 0.0980
vn -0.0000 -0.9569 0.2903
vn -0.0000 -0.8819 0.4714
vn -0.0000 -0.7730 0.6344
vn -0.0000 -0.6344 0.7730
vn -0.0000 -0.4714 0.8819
vn -0.0000 -0.2903 0.9569
vn -0.0000 -0.0980 0.9952
vn -0.0000 0.0980 0.9952
vn -0.0000 0.2903 0.9569
vn -0.0000 0.4714 0.8819
vn -0.0000 0.6344 0.7730
vn -0.0000 0.7730 0.6344
vn -0.0000 0.8819 0.4714
vn -0.0000 0.9569 0.2903
vn -0.0000 0.9952 0.0980
vn -0.0000 0.9952 -0.0980
vn -0.0000 0.9569 -0.2903
vn -0.0000 0.8819 -0.4714
vn -0.0000 0.7730 -0.6344
vn -0.0000 0.6344 -0.7730
vn -0.0000 0.4714 -0.8819
vn -0.0000 0.2903 -0.9569
vn -0.0000 0.0980 -0.9952
vn -1.0000 0.0001 -0.0000
vn -1.0000 -0.0001 -0.0000
vt 0.250000 0.490000
vt 0.750000 0.490000
vt 0.000000 0.500000
vt 1.000000 0.500000
vt 0.750000 0.490000
vt 0.296822 0.485388
vt 0.796822 0.485388
vt 0.968750 0.500000
vt 0.796822 0.485388
vt 0.341844 0.471731
vt 0.841844 0.471731
vt 0.383337 0.449553
vt 0.883337 0.449553
vt 0.419706 0.419706
vt 0.919706 0.419706
vt 0.937500 0.500000
vt 0.841844 0.471731
vt 0.449553 0.383337
vt 0.949553 0.383337
vt 0.471731 0.341844
vt 0.971731 0.341844
vt 0.906250 0.500000
vt 0.883337 0.449553
vt 0.485388 0.296822
vt 0.985388 0.296822
vt 0.490000 0.250000
vt 0.990000 0.250000
vt 0.875000 0.500000
vt 0.919706 0.419706
vt 0.485388 0.203178
vt 0.985388 0.203178
vt 0.471731 0.158156
vt 0.971731 0.158156
vt 0.843750 0.500000
vt 0.949553 0.383337
vt 0.449553 0.116663
vt 0.949553 0.116663
vt 0.419706 0.080294
vt 0.919706 0.080294
vt 0.812500 0.500000
vt 0.971731 0.341844
vt 0.383337 0.050447
vt 0.883337 0.050447
vt 0.341844 0.028269
vt 0.841844 0.028269
vt 0.781250 0.500000
vt 0.985388 0.296822
vt 0.296822 0.014612
vt 0.796822 0.014612
vt 0.250000 0.010000
vt 0.750000 0.010000
vt 0.750000 0.500000
vt 0.990000 0.250000
vt 0.203178 0.014612
vt 0.703178 0.014612
vt 0.158156 0.028269
vt 0.658156 0.028269
vt 0.718750 0.500000
vt 0.985388 0.203178
vt 0.116663 0.050447
vt 0.616663 0.050447
vt 0.080294 0.080294
vt 0.580294 0.080294
vt 0.687500 0.500000
vt 0.971731 0.158156
vt 0.050447 0.116663
vt 0.550447 0.116663
vt 0.028269 0.158156
vt 0.528269 0.158156
vt 0.656250 0.500000
vt 0.949553 0.116663
vt 0.014612 0.203178
vt 0.514612 0.203178
vt 0.010000 0.250000
vt 0.510000 0.250000
vt 0.625000 0.500000
vt 0.919706 0.080294
vt 0.014612 0.296822
vt 0.514612 0.296822
vt 0.028269 0.341844
vt 0.528269 0.341844
vt 0.593750 0.500000
vt 0.883337 0.050447
vt 0.050447 0.383337
vt 0.550447 0.383337
vt 0.080294 0.419706
vt 0.580294 0.419706
vt 0.562500 0.500000
vt 0.841844 0.028269
vt 0.116663 0.449553
vt 0.616663 0.449553
vt 0.158156 0.471731
vt 0.658156 0.471731
vt 0.531250 0.500000
vt 0.796822 0.014612
vt 0.203178 0.485388
vt 0.703178 0.485388
vt 0.500000 0.500000
vt 0.750000 0.010000
vt 0.250000 0.250000
vt 0.468750 0.500000
vt 0.703178 0.014612
vt 0.437500 0.500000
vt 0.658156 0.028269
vt 0.406250 0.500000
vt 0.616663 0.050447
vt 0.375000 0.500000
vt 0.580294 0.080294
vt 0.343750 0.500000
vt 0.550447 0.116663
vt 0.312500 0.500000
vt 0.528269 0.158156
vt 0.281250 0.500000
vt 0.514612 0.203178
vt 0.250000 0.500000
vt 0.510000 0.250000
vt 0.218750 0.500000
vt 0.514612 0.296822
vt 0.187500 0.500000
vt 0.528269 0.341844
vt 0.156250 0.500000
vt 0.550447 0.383337
vt 0.125000 0.500000
vt 0.580294 0.419706
vt 0.093750 0.500000
vt 0.616663 0.449553
vt 0.062500 0.500000
vt 0.658156 0.471731
vt 0.031250 0.500000
vt 0.703178 0.485388
vt 0.750000 0.370000
vt 1.000000 0.973000
vt 0.000000 0.973000
vt 0.773411 0.367694
vt 0.968750 0.973000
vt 0.795922 0.139134
vt 0.562500 0.973000
vt 0.816668 0.349776
vt 0.906250 0.973000
vt 0.816668 0.150224
vt 0.593750 0.973000
vt 0.795922 0.360866
vt 0.937500 0.973000
vt 0.849776 0.183332
vt 0.656250 0.973000
vt 0.849777 0.316668
vt 0.843750 0.973000
vt 0.870000 0.250000
vt 0.750000 0.973000
vt 0.867694 0.273411
vt 0.781250 0.973000
vt 0.860865 0.204078
vt 0.687500 0.973000
vt 0.867694 0.226589
vt 0.718750 0.973000
vt 0.860865 0.295922
vt 0.812500 0.973000
vt 0.834853 0.334853
vt 0.875000 0.973000
vt 0.834853 0.165147
vt 0.625000 0.973000
vt 0.630000 0.250000
vt 0.250000 0.973000
vt 0.639134 0.204078
vt 0.312500 0.973000
vt 0.632306 0.226589
vt 0.281250 0.973000
vt 0.632306 0.273411
vt 0.218750 0.973000
vt 0.665147 0.165147
vt 0.375000 0.973000
vt 0.650224 0.183332
vt 0.343750 0.973000
vt 0.650224 0.316668
vt 0.156250 0.973000
vt 0.639134 0.295922
vt 0.187500 0.973000
vt 0.704078 0.360866
vt 0.062500 0.973000
vt 0.704078 0.139134
vt 0.437500 0.973000
vt 0.683332 0.349776
vt 0.093750 0.973000
vt 0.726589 0.367694
vt 0.031250 0.973000
vt 0.773411 0.132306
vt 0.531250 0.973000
vt 0.750000 0.130000
vt 0.500000 0.973000
vt 0.726589 0.132306
vt 0.468750 0.973000
vt 0.683332 0.150224
vt 0.406250 0.973000
vt 0.665147 0.334853
vt 0.125000 0.973000
s 0
f 50/100/1 3/6/1 1/1/1
f 50/100/2 5/10/2 3/6/2
f 50/100/3 6/12/3 5/10/3
f 50/100/4 7/14/4 6/12/4
f 50/100/5 9/18/5 7/14/5
f 50/100/6 10/20/6 9/18/6
f 50/100/7 12/24/7 10/20/7
f 50/100/8 13/26/8 12/24/8
f 15/30/9 13/26/9 50/100/9
f 16/32/10 15/30/10 50/100/10
f 18/36/11 16/32/11 50/100/11
f 19/38/12 18/36/12 50/100/12
f 50/100/13 21/42/13 19/38/13
f 50/100/14 22/44/14 21/42/14
f 50/100/15 24/48/15 22/44/15
f 50/100/16 25/50/16 24/48/16
f 27/54/17 25/50/17 50/100/17
f 28/56/18 27/54/18 50/100/18
f 30/60/19 28/56/19 50/100/19
f 31/62/20 30/60/20 50/100/20
f 31/62/21 50/100/21 33/66/21
f 33/66/22 50/100/22 34/68/22
f 34/68/23 50/100/23 36/72/23
f 50/100/24 37/74/24 36/72/24
f 50/100/25 39/78/25 37/74/25
f 50/100/26 40/80/26 39/78/26
f 50/100/27 42/84/27 40/80/27
f 50/100/28 43/86/28 42/84/28
f 43/86/29 50/100/29 45/90/29
f 45/90/30 50/100/30 46/92/30
f 67/134/31 66/131/31 3/7/31
f 24/49/31 93/186/31 68/136/31
f 46/92/32 50/100/32 48/96/32
f 48/96/33 50/100/33 1/1/33
f 2/4/34 67/135/34 4/8/34
f 4/8/35 71/143/35 8/16/35
f 8/16/36 69/139/36 11/22/36
f 11/22/37 79/159/37 14/28/37
f 17/34/38 79/159/38 73/147/38
f 20/40/39 73/147/39 78/157/39
f 23/46/40 78/157/40 75/151/40
f 26/52/41 75/151/41 74/149/41
f 29/58/42 74/149/42 77/155/42
f 32/64/43 77/155/43 76/153/43
f 35/70/44 76/153/44 72/145/44
f 38/76/45 72/145/45 80/161/45
f 41/82/46 80/161/46 70/141/46
f 44/88/47 70/141/47 68/137/47
f 47/94/48 68/137/48 93/187/48
f 49/98/49 93/187/49 94/189/49
f 51/101/50 94/189/50 95/191/50
f 52/103/51 95/191/51 90/181/51
f 53/105/52 90/181/52 96/193/52
f 54/107/53 96/193/53 85/171/53
f 54/107/54 86/173/54 55/109/54
f 55/109/55 82/165/55 56/111/55
f 56/111/56 83/167/56 57/113/56
f 57/113/57 81/163/57 58/115/57
f 58/115/58 84/169/58 59/117/58
f 59/117/59 88/177/59 60/119/59
f 60/119/60 87/175/60 61/121/60
f 61/121/61 97/195/61 62/123/61
f 62/123/62 91/183/62 63/125/62
f 63/125/63 89/179/63 64/127/63
f 64/127/64 92/185/64 65/129/64
f 65/129/65 66/133/65 2/3/65
f 20/41/31 44/89/31 56/112/31
f 46/93/31 48/97/31 89/178/31
f 48/97/31 1/2/31 92/184/31
f 46/93/31 89/178/31 91/182/31
f 1/2/31 3/7/31 66/131/31
f 3/7/31 5/11/31 67/134/31
f 1/2/31 66/131/31 92/184/31
f 5/11/31 6/13/31 69/138/31
f 6/13/31 7/15/31 79/158/31
f 79/158/31 7/15/31 73/146/31
f 7/15/31 9/19/31 73/146/31
f 9/19/31 10/21/31 78/156/31
f 10/21/31 12/25/31 75/150/31
f 10/21/31 75/150/31 78/156/31
f 9/19/31 78/156/31 73/146/31
f 43/87/31 45/91/31 91/182/31
f 45/91/31 46/93/31 91/182/31
f 40/81/31 42/85/31 87/174/31
f 42/85/31 43/87/31 97/194/31
f 97/194/31 43/87/31 91/182/31
f 37/75/31 39/79/31 84/168/31
f 39/79/31 40/81/31 88/176/31
f 88/176/31 40/81/31 87/174/31
f 83/166/31 36/73/31 81/162/31
f 36/73/31 37/75/31 81/162/31
f 89/178/31 48/97/31 92/184/31
f 42/85/31 97/194/31 87/174/31
f 84/168/31 81/162/31 37/75/31
f 88/176/31 84/168/31 39/79/31
f 6/13/31 79/158/31 69/138/31
f 5/11/31 69/138/31 71/142/31
f 5/11/31 71/142/31 67/134/31
f 74/148/31 75/150/31 12/25/31
f 12/25/31 13/27/31 74/148/31
f 13/27/31 15/31/31 77/154/31
f 77/154/31 15/31/31 76/152/31
f 15/31/31 16/33/31 76/152/31
f 16/33/31 18/37/31 76/152/31
f 18/37/31 19/39/31 72/144/31
f 19/39/31 21/43/31 80/160/31
f 18/37/31 72/144/31 76/152/31
f 21/43/31 22/45/31 70/140/31
f 22/45/31 24/49/31 68/136/31
f 21/43/31 70/140/31 80/160/31
f 24/49/31 25/51/31 94/188/31
f 25/51/31 27/55/31 95/190/31
f 95/190/31 27/55/31 90/180/31
f 27/55/31 28/57/31 90/180/31
f 28/57/31 30/61/31 96/192/31
f 30/61/31 31/63/31 96/192/31
f 31/63/31 33/67/31 85/170/31
f 96/192/31 31/63/31 85/170/31
f 33/67/31 34/69/31 86/172/31
f 34/69/31 36/73/31 82/164/31
f 33/67/31 86/172/31 85/170/31
f 36/73/31 83/166/31 82/164/31
f 82/164/31 86/172/31 34/69/31
f 28/57/31 96/192/31 90/180/31
f 77/154/31 74/148/31 13/27/31
f 72/144/31 19/39/31 80/160/31
f 70/140/31 22/45/31 68/136/31
f 25/51/31 95/190/31 94/188/31
f 24/49/31 94/188/31 93/186/31
f 2/4/34 66/132/34 67/135/34
f 4/8/35 67/135/35 71/143/35
f 8/16/36 71/143/36 69/139/36
f 11/22/37 69/139/37 79/159/37
f 17/34/38 14/28/38 79/159/38
f 20/40/39 17/34/39 73/147/39
f 23/46/40 20/40/40 78/157/40
f 26/52/41 23/46/41 75/151/41
f 29/58/42 26/52/42 74/149/42
f 32/64/43 29/58/43 77/155/43
f 35/70/44 32/64/44 76/153/44
f 38/76/45 35/70/45 72/145/45
f 41/82/46 38/76/46 80/161/46
f 44/88/47 41/82/47 70/141/47
f 47/94/48 44/88/48 68/137/48
f 49/98/49 47/94/49 93/187/49
f 51/101/50 49/98/50 94/189/50
f 52/103/51 51/101/51 95/191/51
f 53/105/52 52/103/52 90/181/52
f 54/107/53 53/105/53 96/193/53
f 54/107/54 85/171/54 86/173/54
f 55/109/55 86/173/55 82/165/55
f 56/111/56 82/165/56 83/167/56
f 57/113/57 83/167/57 81/163/57
f 58/115/58 81/163/58 84/169/58
f 59/117/59 84/169/59 88/177/59
f 60/119/60 88/177/60 87/175/60
f 61/121/61 87/175/61 97/195/61
f 62/123/62 97/195/62 91/183/62
f 63/125/63 91/183/63 89/179/63
f 64/127/64 89/179/64 92/185/64
f 65/129/65 92/185/65 66/133/65
f 64/128/31 65/130/31 2/5/31
f 2/5/31 4/9/31 8/17/31
f 8/17/31 11/23/31 20/41/31
f 11/23/31 14/29/31 20/41/31
f 14/29/31 17/35/31 20/41/31
f 20/41/31 23/47/31 26/53/31
f 26/53/31 29/59/31 20/41/31
f 29/59/66 32/65/66 20/41/66
f 32/65/66 35/71/66 38/77/66
f 38/77/66 41/83/66 44/89/66
f 44/89/31 47/95/31 49/99/31
f 49/99/31 51/102/31 52/104/31
f 52/104/31 53/106/31 54/108/31
f 54/108/67 55/110/67 56/112/67
f 56/112/67 57/114/67 60/120/67
f 57/114/31 58/116/31 60/120/31
f 58/116/66 59/118/66 60/120/66
f 60/120/31 61/122/31 62/124/31
f 62/124/67 63/126/67 64/128/67
f 64/128/31 2/5/31 20/41/31
f 2/5/31 8/17/31 20/41/31
f 32/65/31 38/77/31 44/89/31
f 44/89/31 49/99/31 52/104/31
f 52/104/31 54/108/31 56/112/31
f 60/120/31 62/124/31 56/112/31
f 62/124/31 64/128/31 56/112/31
f 20/41/31 32/65/31 44/89/31
f 44/89/31 52/104/31 56/112/31
f 64/128/31 20/41/31 56/112/31
